<svg xmlns="http://www.w3.org/2000/svg" direction="ltr" width="123.62434893665755" height="125.32480604008776" viewBox="-152.00856314115097 341.898871920157 123.62434893665755 125.32480604008776" stroke-linecap="round" stroke-linejoin="round" style="background-color: transparent;"><defs/><g transform="matrix(1, 0, 0, 1, -62.8283, 373.8989)" opacity="1"><g transform="scale(1)"><path d="M0,0 Q-0.0733,5.6918 -0.0951,7.8854 T-0.1297,11.5195 -0.1502,13.9521 -0.1623,15.7643 -0.1695,17.2109 -0.129,18.3473 -0.0601,19.3446 0.0397,20.3918 0.2049,21.5074 0.3496,22.6146 0.4353,23.6334 0.533,24.6098 0.6947,25.6916 0.8945,26.7421 1.1066,27.7272 1.2791,28.7205 1.4404,29.8122 1.5951,30.9623 1.7682,32.206 1.9523,33.4605 2.0614,34.5298 2.126,35.5342 2.1643,36.4533 2.187,37.277 2.2004,38.0442 2.2084,38.8227 2.2131,39.6548 2.2159,40.4738 2.2176,41.2382 2.2186,42.062 2.2192,42.9229 2.2195,43.7121 2.2666,44.41 2.3413,45.0558 2.3856,45.8112 2.4118,46.6297 2.4274,47.3917 2.4366,48.1223 2.4421,48.7407 2.3984,49.3373 2.2789,50.0168 2.0675,50.6516 1.7548,51.3049 1.2863,52.0179 0.4628,52.8173 -0.7382,53.7046 -1.9836,54.5278 -3.3491,55.3456 -4.8814,56.1459 -6.1561,56.7261 -7.5144,57.2105 -9.1607,57.7216 -11.772,58.383 -15.2853,59.215 -18.3612,59.873 -20.8725,60.322 -22.8964,60.6471 -24.7252,60.8866 -26.4363,61.0754 -28.2916,61.1873 -30.3872,61.2536 -32.9572,61.2929 -35.8083,61.3161 -38.3391,61.1853 -40.5253,60.9631 -42.3545,60.7133 -44.068,60.3412 -45.45,59.9659 -46.6356,59.4827 -47.7884,58.9234 -48.8361,58.3435 -49.787,57.7187 -50.5868,57.1611 -51.3418,56.6432 -52.0704,56.1958 -52.6895,55.7901 -53.2438,55.3154 -53.7251,54.7143 -54.2832,53.7286 -54.9114,52.3622 -55.4608,50.9863 -55.927,49.8429 -56.297,48.9311 -56.6099,48.1565 -56.889,47.3675 -57.1013,46.4763 -57.1211,44.9438 -56.976,42.2853 L-56.89,40.71 " stroke-linecap="round" fill="none" stroke="#ffffff" stroke-width="11" stroke-dasharray="none" stroke-dashoffset="0"/></g></g><g transform="matrix(1, 0, 0, 1, -82.1854, 387.9457)" opacity="1"><g transform="scale(1)"><path d="M0,0 Q-3.7565,2.192 -5.0202,2.9535 T-7.1062,4.2762 -8.491,5.2821 -9.5356,6.2142 -10.3034,7.1007 -10.8337,7.846 -11.2233,8.5667 -11.5296,9.33 -11.7864,10.0593 -11.9386,10.7135 -11.9575,11.2682 -11.7467,11.709 -11.0432,12.2085 -9.899,12.7958 -8.6262,13.3659 -6.9023,14.0133 -4.8357,14.7616 -3.0162,15.4292 -1.494,15.9918 -0.2966,16.5451 0.5597,16.9831 1.063,17.4667 1.0618,18.2014 0.4642,19.1399 -0.4868,20.1422 -1.4986,21.0703 -2.6236,21.8993 -3.8159,22.6126 -5.1947,23.3693 -6.7593,24.1519 -8.8844,25.0597 -12.2096,26.4036 L-14.18,27.2 " stroke-linecap="round" fill="none" stroke="#ffffff" stroke-width="11" stroke-dasharray="none" stroke-dashoffset="0"/></g></g></svg>