<svg width="990" xmlns="http://www.w3.org/2000/svg" height="980" fill="none"><g opacity=".075" data-testid="shapes"><g class="fills"><rect rx="0" ry="0" width="990" height="980" class="frame-background"/></g><g class="frame-children"><path d="m164.846 134.905-3.3 2.425c-2.2 1.617-4.49 3.263-6.87 4.939a281.567 281.567 0 0 0-6.888 5.006c-2.212 1.661-4.665 3.831-7.358 6.509-2.694 2.678-2.8 4.952-.318 6.821 2.482 1.868 5.248 2.534 8.299 1.996a34.332 34.332 0 0 0 8.684-2.737c2.739-1.286 4.642-2.483 5.708-3.592l1.599-1.663a3.688 3.688 0 0 1 5.231-.534c1.591 1.313 1.827 3.683.529 5.292l-1.007 1.183c-.672.788-2.362 2.054-5.072 3.797-2.709 1.742-5.968 3.222-9.776 4.438-3.808 1.217-7.52 1.783-11.136 1.7-3.616-.083-6.724-.793-9.324-2.13-2.599-1.337-4.177-3.55-4.731-6.638-.555-3.089.197-6.105 2.255-9.048 2.058-2.943 4.006-5.183 5.846-6.719a154.333 154.333 0 0 1 6.169-4.866 282.966 282.966 0 0 1 6.915-5.033 411.588 411.588 0 0 0 6.802-4.901l3.298-2.429a3.75 3.75 0 0 1 5.264.854c1.224 1.702.857 4.084-.819 5.33Zm-.53 24.35-.374-.715c-.249-.478-2.048-.617-5.399-.419-3.35.198-6.332 1.16-8.946 2.884-2.613 1.724-4.6 3.673-5.961 5.846-1.36 2.173-2.401 4.411-3.122 6.715-.721 2.304-.086 4.375 1.906 6.213 1.991 1.839 4.495 2.626 7.509 2.362 3.015-.264 5.381-1.102 7.097-2.514l2.573-2.119a3.688 3.688 0 0 1 5.25-.139 3.793 3.793 0 0 1 .151 5.311l-2.435 2.119c-1.624 1.413-3.636 2.62-6.035 3.62-2.4.999-5.063 1.527-7.99 1.583-2.927.056-5.865-.413-8.816-1.406-2.95-.993-4.981-2.723-6.091-5.19-1.111-2.467-1.519-5.17-1.226-8.11.294-2.94 1.103-5.911 2.428-8.913 1.324-3.002 3.477-5.871 6.458-8.607 2.981-2.735 6.258-4.817 9.83-6.244 3.573-1.428 7.172-1.825 10.8-1.192 3.627.633 5.922 1.521 6.883 2.665l1.442 1.716c1.238 1.657.913 4.016-.725 5.268a3.689 3.689 0 0 1-5.207-.734Zm-5.399 22.401-.228-.495-.228-.495c-.855-1.894-.03-4.132 1.843-4.996 1.873-.865 4.084-.03 4.939 1.864l.22.499.219.499c.848 1.889.024 4.115-1.842 4.976-1.865.862-4.067.033-4.923-1.852Zm2.758 1.212-1.665-.083c-1.111-.055-3.005.478-5.683 1.6-2.679 1.122-5.767 3.099-9.264 5.931-3.497 2.833-5.988 5.711-7.473 8.634-1.486 2.924-.878 4.736 1.823 5.436 2.7.701 4.986 1.173 6.857 1.415l2.806.363c2.128.23 3.671 2.158 3.45 4.311-.22 2.154-2.121 3.721-4.25 3.505l-5.922-.569c-3.947-.38-7.033-1.201-9.257-2.463-2.223-1.262-3.723-3.051-4.497-5.367s-.799-4.674-.074-7.072c.725-2.399 1.876-4.659 3.453-6.781a40.173 40.173 0 0 1 5.405-5.913 48.907 48.907 0 0 1 6.218-4.776c2.121-1.364 4.947-2.692 8.479-3.984 3.532-1.292 6.073-1.902 7.623-1.83l2.324.108c2.057.099 3.645 1.865 3.547 3.946-.097 2.081-1.843 3.687-3.9 3.589Z" style="background-color: rgb(249, 250, 251); fill: #000;" class="fills" data-testid="svg-path"/><g data-testid="Group"><path d="m168.484 474.667.143 5.559c.096 3.706.182 7.745.257 12.116.076 4.371.097 8.809.062 13.316-.034 4.506-.034 9.302 0 14.388l.051 7.629c.079 2.306-1.671 4.241-3.91 4.322-2.238.082-4.117-1.721-4.196-4.027l-.471-7.614a1099.15 1099.15 0 0 0-.993-14.536 146.276 146.276 0 0 1-.407-13.478c.076-4.371.162-8.41.258-12.116l.143-5.559c0-2.578 2.029-4.667 4.531-4.667 2.503 0 4.532 2.089 4.532 4.667Z" style="background-color: rgb(249, 250, 251); fill: #000;" class="fills" data-testid="svg-path"/><path d="m132.207 494.903 4.583-.282c3.056-.188 6.781-.345 11.177-.47a855.37 855.37 0 0 1 13.428-.274c4.557-.058 8.76-.089 12.607-.092 3.848-.004 7.146-.063 9.896-.176 2.749-.113 5.702-.242 8.858-.385l4.734-.216c2.343-.147 4.359 1.681 4.502 4.084.143 2.402-1.64 4.468-3.983 4.615l-4.724.378c-3.15.252-6.179.499-9.089.741-2.91.241-6.283.384-10.12.429-3.836.044-8.018.084-12.545.117-4.528.034-8.94.075-13.238.124-4.297.049-7.975.144-11.033.285l-4.587.213c-2.449.132-4.538-1.796-4.667-4.307-.129-2.51 1.752-4.652 4.201-4.784Z" style="background-color: rgb(249, 250, 251); fill: #000;" class="fills" data-testid="svg-path"/><path d="m189.948 477.141-4.555 5.322a424.934 424.934 0 0 1-9.399 10.613 836.53 836.53 0 0 1-9.074 9.766c-2.82 2.984-5.424 5.616-7.812 7.897-2.387 2.281-4.895 4.7-7.522 7.255l-3.942 3.832a3.87 3.87 0 0 1-5.469.084 3.86 3.86 0 0 1-.084-5.462l3.714-4.053a1155.52 1155.52 0 0 0 7.003-7.708 308.8 308.8 0 0 1 7.524-8.036 988.441 988.441 0 0 0 9.044-9.492 381.66 381.66 0 0 0 9.419-10.388l4.61-5.275a4.327 4.327 0 0 1 6.098-.446 4.315 4.315 0 0 1 .445 6.091Z" style="background-color: rgb(249, 250, 251); fill: #000;" class="fills" data-testid="svg-path"/><path d="m148.859 475.099 4.161 3.284a1674.37 1674.37 0 0 1 9.281 7.383 288.857 288.857 0 0 0 9.904 7.6c3.189 2.334 6.008 4.639 8.458 6.916 2.45 2.278 5.016 4.637 7.698 7.08l4.023 3.663a4.52 4.52 0 0 1 .571 6.354 4.488 4.488 0 0 1-6.335.573l-4.314-3.313a779.946 779.946 0 0 0-8.121-6.159 480.594 480.594 0 0 1-8.659-6.649 269.47 269.47 0 0 1-9.803-8.082l-8.963-7.745-4.01-3.467a4.827 4.827 0 0 1-.654-6.782 4.795 4.795 0 0 1 6.763-.656Z" style="background-color: rgb(249, 250, 251); fill: #000;" class="fills" data-testid="svg-path"/></g><g data-testid="Group"><path d="m140.994 788.232 2.983.95c1.989.633 4.498 1.099 7.527 1.396 3.028.298 6.089.541 9.184.73 3.094.189 6.561-.08 10.4-.808l5.76-1.092c2.661-.914 5.567.48 6.49 3.115.924 2.634-.484 5.511-3.145 6.426l-3.758 1.158a31.408 31.408 0 0 1-7.701 1.356c-2.628.132-5.563.125-8.804-.02a229.525 229.525 0 0 1-10.437-.723c-3.717-.337-6.587-.79-8.609-1.361l-3.034-.856c-2.865-.859-4.484-3.856-3.616-6.692.869-2.836 3.895-4.439 6.76-3.579Zm39.61 1.338.249.107.249.108c2.564 1.146 3.708 4.129 2.559 6.672-1.15 2.542-4.16 3.684-6.731 2.555l-.247-.112-.247-.113c-2.571-1.139-3.722-4.126-2.571-6.671 1.151-2.546 4.168-3.685 6.739-2.546Zm3.471 4.146.238 1.631c.159 1.088.297 3.694.415 7.819s.202 7.535.252 10.231c.05 2.697.005 5.314-.137 7.852a337.192 337.192 0 0 1-.478 7.247l-.265 3.439c-.228 3.012-2.876 5.271-5.918 5.05-3.042-.221-5.329-2.839-5.11-5.851l.24-3.378c.16-2.252.32-4.53.481-6.833.161-2.304.26-4.799.297-7.485.036-2.687.077-5.996.121-9.927.044-3.932.013-6.32-.094-7.164l-.16-1.267c-.373-2.762 1.583-5.301 4.371-5.677 2.789-.376 5.359 1.553 5.747 4.313Z" style="background-color: rgb(249, 250, 251); fill: #000;" class="fills" data-testid="svg-path"/><path d="m137.203 801.47.282 6.059c.189 4.039.404 8.118.647 12.237.242 4.12.423 7.689.542 10.709.12 3.019.234 6.38.343 10.08l.164 5.551c.072 2.62-1.968 4.804-4.562 4.885-2.594.08-4.764-1.973-4.851-4.592l-.186-5.501c-.123-3.667-.247-6.985-.373-9.956a1023.67 1023.67 0 0 0-.521-10.724 516.457 516.457 0 0 1-.509-12.331l-.176-6.062c-.097-2.565 1.884-4.724 4.424-4.822 2.541-.097 4.679 1.902 4.776 4.467Zm-4.76 40.493 1.442-.698c.961-.466 3.136-1.126 6.523-1.98 3.388-.855 6.367-1.393 8.936-1.617 2.57-.223 5.863-.417 9.882-.583 4.018-.166 7.742-.706 11.17-1.621a9701.97 9701.97 0 0 0 5.143-1.372c2.58-.859 5.361.555 6.212 3.159.851 2.604-.55 5.412-3.129 6.271l-4.677 1.337c-3.118.891-6.162 1.378-9.132 1.461-2.97.084-6.629.273-10.978.568-4.349.295-7.867.758-10.553 1.388-2.686.63-4.487 1.165-5.403 1.606l-1.374.66c-2.344 1.12-5.144.116-6.263-2.247-1.119-2.362-.134-5.193 2.201-6.332Z" style="background-color: rgb(249, 250, 251); fill: #000;" class="fills" data-testid="svg-path"/></g><path d="m479.3 185.061 1.921-2.544c1.28-1.696.144-3.73-3.409-6.102-3.552-2.372-6.391-4.05-8.516-5.033-2.125-.984-4.692-2.766-7.701-5.348-3.01-2.582-4.13-5.802-3.36-9.66.77-3.858 3.237-6.565 7.402-8.122 4.164-1.556 8.514-1.62 13.05-.19 4.535 1.43 8.695 3.211 12.478 5.344 3.784 2.133 7.189 3.455 10.215 3.967 3.027.513 5.641-.5 7.842-3.038 2.202-2.538 3.443-5.103 3.724-7.695.28-2.593.25-5.345-.091-8.259l-.511-4.37c-.365-2.926 1.72-5.594 4.662-5.967 2.942-.374 5.633 1.688 6.02 4.611l.364 2.514c.243 1.676.435 4.428.575 8.257.14 3.829-.143 6.926-.85 9.29-.707 2.365-1.705 4.499-2.994 6.403-1.289 1.904-3.879 4.007-7.771 6.308-3.892 2.302-7.064 3.417-9.516 3.345-2.452-.071-4.878-.557-7.278-1.456-2.399-.899-5.525-2.503-9.378-4.81-3.853-2.308-6.934-3.996-9.243-5.063-2.31-1.067-4.645-1.212-7.007-.434-2.361.778-1.838 2.046 1.569 3.804 3.407 1.757 6.424 3.23 9.052 4.418 2.628 1.188 4.901 2.539 6.821 4.054 1.919 1.515 3.373 3.365 4.361 5.551.988 2.187 1.155 4.554.501 7.103-.653 2.548-1.642 4.698-2.965 6.45l-1.986 2.628a5.009 5.009 0 0 1-6.986.989 4.941 4.941 0 0 1-.995-6.945ZM480.741 480.892l-.725-.79c-.484-.526-2.297.347-5.439 2.618-3.142 2.272-5.216 5.097-6.222 8.474-1.006 3.378-.776 6.525.69 9.443 1.465 2.918 3.834 5.388 7.105 7.411 3.271 2.023 6.638 2.883 10.1 2.578 3.462-.305 6.319-1.394 8.57-3.268 2.252-1.874 3.738-4.341 4.458-7.401.72-3.06.59-6.118-.39-9.174-.979-3.057-2.938-5.747-5.875-8.072l-4.406-3.487a5.035 5.035 0 0 1-1.254-7.065c1.627-2.293 4.826-2.847 7.146-1.239l4.408 3.007c2.939 2.004 5.09 3.936 6.453 5.794a21.427 21.427 0 0 1 3.12 6.102c.716 2.21 1.189 4.631 1.418 7.265.23 2.634.071 5.09-.476 7.366-.546 2.277-2.247 5.299-5.102 9.066-2.855 3.767-5.393 6.277-7.614 7.529a22.303 22.303 0 0 1-7.114 2.549c-2.521.447-5.225.521-8.11.223-2.886-.298-5.533-1.055-7.942-2.27a34.586 34.586 0 0 1-6.77-4.494c-2.105-1.78-3.943-3.892-5.515-6.338-1.572-2.445-2.568-5.041-2.987-7.789a22.96 22.96 0 0 1 .215-8.187 26.27 26.27 0 0 1 2.836-7.605c1.33-2.359 3.086-4.505 5.27-6.436 2.183-1.931 5.564-3.228 10.142-3.89 4.578-.662 7.37-.642 8.376.059l1.509 1.051a4.5 4.5 0 0 1 .57 6.374c-1.616 1.918-4.497 2.184-6.445.596Z" style="background-color: rgb(249, 250, 251); fill: #000;" class="fills" data-testid="svg-path"/><g data-testid="Group"><path d="m508.752 794.697-2.955 2.939c-1.971 1.96-4.782 4.603-8.433 7.931a533.304 533.304 0 0 0-11 10.318 820.178 820.178 0 0 0-9.413 9.204 978.671 978.671 0 0 0-8.234 8.311l-4.343 4.434a3.686 3.686 0 0 1-5.207.173 3.68 3.68 0 0 1-.174-5.202l4.138-4.626c2.759-3.084 5.378-6.044 7.859-8.88 2.481-2.836 5.585-6.155 9.313-9.958 3.727-3.803 7.47-7.242 11.229-10.318 3.758-3.075 6.697-5.511 8.816-7.309l3.178-2.696a3.862 3.862 0 0 1 5.455.229 3.854 3.854 0 0 1-.229 5.45ZM511.103 812.959l-3.816 5.141c-2.544 3.427-5.551 7.062-9.021 10.904A406.386 406.386 0 0 0 489 839.59a1125.207 1125.207 0 0 0-8.634 10.389l-4.573 5.565a3.81 3.81 0 0 1-5.331.656 3.77 3.77 0 0 1-.658-5.307l4.31-5.771c2.873-3.846 5.614-7.554 8.222-11.122 2.609-3.567 5.574-7.176 8.896-10.825 3.322-3.649 6.315-7.142 8.978-10.477l3.994-5.003a4.36 4.36 0 0 1 6.094-.802 4.314 4.314 0 0 1 .805 6.066Z" style="background-color: rgb(249, 250, 251); fill: #000;" class="fills" data-testid="svg-path"/></g><path d="m817.633 133.901-3.797 4.863a558.12 558.12 0 0 0-6.749 8.804 1830.877 1830.877 0 0 0-5.018 6.724c-1.376 1.855-2.88 4.064-4.511 6.627l-2.447 3.843c-1.048 1.81-3.375 2.434-5.199 1.394a3.762 3.762 0 0 1-1.405-5.159l2.619-4.227c1.745-2.819 3.31-5.176 4.692-7.071a378.063 378.063 0 0 1 5.137-6.848 274.007 274.007 0 0 1 7.013-8.746l3.949-4.742a3.68 3.68 0 0 1 5.145-.567 3.613 3.613 0 0 1 .571 5.105Zm-25.337 25.231 1.228.21c.818.14 2.517-.007 5.098-.441s5.547-.756 8.898-.964c3.351-.209 6.215-.335 8.593-.379 2.377-.043 4.249.175 5.616.655l2.049.72a3.674 3.674 0 0 1 1.902 4.851c-.822 1.861-3.007 2.712-4.885 1.901l-3.947-.335c-2.632-.224-5.487-.231-8.564-.021-3.078.21-5.998.548-8.76 1.013-2.762.466-4.82.63-6.173.492l-2.029-.206c-2.086-.267-3.559-2.162-3.29-4.232.269-2.07 2.178-3.531 4.264-3.264Zm32.988 5.354-1.544 2.107c-1.029 1.405-3.181 3.842-6.456 7.313-3.275 3.471-5.7 6.053-7.276 7.746-1.577 1.693-3.415 4.078-5.515 7.156l-3.151 4.616a3.52 3.52 0 0 1-4.834 1.019 3.46 3.46 0 0 1-1.052-4.791l3.291-5.279c2.195-3.519 4.125-6.179 5.791-7.978 1.667-1.8 4.081-4.34 7.243-7.621 3.161-3.282 5.203-5.542 6.125-6.782l1.383-1.861a3.734 3.734 0 0 1 5.19-.794 3.667 3.667 0 0 1 .805 5.149ZM789.012 491.864l1.847-2.393c1.231-1.595 3.3-3.634 6.208-6.115 2.907-2.482 6.327-4.007 10.261-4.576 3.933-.569 7.264-.339 9.99.69 2.727 1.029 5.092 2.179 7.094 3.448 2.003 1.27 4.268 2.351 6.795 3.243 2.528.893 4.675.521 6.442-1.115 1.767-1.635 3.912-4.217 6.434-7.746l3.784-5.293a4.417 4.417 0 0 1 6.129-1.279 4.472 4.472 0 0 1 1.285 6.161l-1.868 3.158a777.103 777.103 0 0 1-3.804 6.364c-1.292 2.138-3.35 4.389-6.177 6.754-2.826 2.365-5.632 3.7-8.416 4.004-2.785.305-5.74-.332-8.868-1.909-3.127-1.578-5.808-3.094-8.043-4.549a15.795 15.795 0 0 0-7.308-2.537c-2.637-.236-4.991.521-7.062 2.272-2.071 1.75-3.695 3.441-4.871 5.073l-1.764 2.447a5.035 5.035 0 0 1-7.078 1.016 5.103 5.103 0 0 1-1.01-7.118ZM825.12 794.302l-2.532 5.408a129.578 129.578 0 0 1-5.255 10.098c-1.816 3.128-3.668 5.977-5.559 8.547a274.585 274.585 0 0 1-5.244 6.921 429.703 429.703 0 0 1-5.557 6.901c-2.098 2.556-3.421 4.305-3.97 5.246l-.823 1.412a4.394 4.394 0 0 1-6.015 1.543 4.406 4.406 0 0 1-1.56-6.018l1.12-1.883c.746-1.256 2.143-3.177 4.19-5.765a389.802 389.802 0 0 0 5.36-6.91 633.263 633.263 0 0 0 4.854-6.514c1.709-2.324 3.432-4.925 5.168-7.801 1.735-2.876 3.488-6.097 5.257-9.661l2.654-5.347a4.391 4.391 0 0 1 5.862-2.041 4.401 4.401 0 0 1 2.05 5.864Zm-33.318 37.933 2.134-.301c1.423-.2 4.424-.634 9.006-1.302 4.581-.667 8.199-1.086 10.853-1.256 2.654-.171 5.854-.325 9.599-.463 3.744-.138 7.053-.241 9.925-.31 2.872-.069 4.631-.165 5.278-.29l.969-.186a4.715 4.715 0 0 1 5.353 3.973 4.719 4.719 0 0 1-3.961 5.364l-1.616.2c-1.077.133-3.027.206-5.85.22-2.822.013-6.055.076-9.699.188-3.644.113-6.71.239-9.198.38-2.489.141-5.978.499-10.47 1.072-4.491.574-7.471.957-8.939 1.149l-2.203.287a4.398 4.398 0 0 1-4.943-3.772 4.403 4.403 0 0 1 3.762-4.953Zm43.745.589-.046-1.703c-.03-1.135-.539-2.909-1.525-5.321-.987-2.413-2.227-5.139-3.72-8.18a601.612 601.612 0 0 0-3.744-7.514l-1.503-2.953a4.569 4.569 0 0 1 1.776-6.201 4.558 4.558 0 0 1 6.197 1.765l1.711 2.838c1.141 1.892 2.579 4.461 4.315 7.707a63.307 63.307 0 0 1 4.309 10.034c1.137 3.444 1.698 5.883 1.683 7.318l-.023 2.154a4.719 4.719 0 0 1-4.687 4.748 4.718 4.718 0 0 1-4.743-4.692Z" style="background-color: rgb(249, 250, 251); fill: #000;" class="fills" data-testid="svg-path"/></g></g></svg>